<?xml version="1.0" encoding="UTF-8" standalone="no"?>
<svg
   viewBox="0 0 126 126"
   fill="#fff"
   version="1.1"
   id="svg3"
   sodipodi:docname="Gas Mortar Sentry4.svg"
   xml:space="preserve"
   inkscape:version="1.4.3 (0d15f75, 2025-12-25)"
   xmlns:inkscape="http://www.inkscape.org/namespaces/inkscape"
   xmlns:sodipodi="http://sodipodi.sourceforge.net/DTD/sodipodi-0.dtd"
   xmlns="http://www.w3.org/2000/svg"
   xmlns:svg="http://www.w3.org/2000/svg"><defs
     id="defs3" /><sodipodi:namedview
     id="namedview3"
     pagecolor="#ffffff"
     bordercolor="#000000"
     borderopacity="0.25"
     inkscape:showpageshadow="2"
     inkscape:pageopacity="0.0"
     inkscape:pagecheckerboard="0"
     inkscape:deskcolor="#d1d1d1"
     showgrid="false"
     inkscape:zoom="6.468254"
     inkscape:cx="62.922699"
     inkscape:cy="63"
     inkscape:window-width="1920"
     inkscape:window-height="1017"
     inkscape:window-x="1912"
     inkscape:window-y="-8"
     inkscape:window-maximized="1"
     inkscape:current-layer="g7" /><path
     fill="#679552"
     d="M90 33s-6-8.3-18-15h43v15H90Zm2 24v14H44s9-22.4 9-28-9-25-9-25h9s39 0 39 39Zm-7 35H50v-8l-6-6v-2h41v16Zm-47 9h12v-5h43l13 16H18l9-11h11Z"
     id="path1" /><path
     d="M40 69v11l6 6v11H36V18h4s9 19.4 9 25-9 26-9 26Z"
     id="path2"
     style="fill:none" /><path
     d="M33 69v11l-6 6v11h10V18h-4s-9 19.4-9 25 9 26 9 26Z"
     id="path3"
     style="fill:none" /><g
     style="clip-rule:evenodd;fill-rule:evenodd;stroke-linejoin:round;stroke-miterlimit:2"
     id="g3"
     transform="translate(6.93899,-73.936)"><g
       transform="translate(-378.93899,-343.064)"
       id="g7">
    <path
   style="fill:none"
   d="M 276,306 H 532 V 562 H 276 Z"
   id="path1-1" />
    <clipPath
   id="a">
      <path
   d="M 276,306 H 532 V 562 H 276 Z"
   id="path2-1" />
    </clipPath>
    <g
   clip-path="url(#a)"
   id="g6"
   style="display:inline;fill:#ffffff"
   transform="matrix(0.5854982,0,0,0.55952521,198.72723,239.21931)">
      
      
      <path
   d="M 2002.758,671.726 2008,656 h 12 l 16,48 -16,48 v 16 l 12,12 v 20 h -36 v -20 l 12,-12 v -16 l -1.282,-3.846 16.638,-16.638 -7.742,-7.742 7.58,-7.579 v -27.066 h -5.407 c -1.955,-7.582 -7.531,-13.966 -15.029,-17.403 m -24.661,57.08 L 1963,713.71 v -18.581 h 4.645 c 0,-11.109 10.06,-20.129 22.452,-20.129 12.391,0 22.451,9.02 22.451,20.129 h 4.646 v 18.581 l -15.484,15.484 3.096,3.096 5.42,-5.419 4.645,4.645 -15.484,15.484 -4.645,-4.645 6.193,-6.194 -3.096,-3.096 -1.173,1.172 a 9.29,9.29 0 0 1 -13.138,0 l -1.56,-1.56 -3.484,3.484 6.193,6.194 -4.645,4.645 -15.484,-15.484 4.646,-4.645 5.419,5.419 z m 29.032,-33.677 h -34.064 v 14.71 l 6.193,4.645 10.839,-6.968 10.838,6.968 6.194,-4.645 z m -17.032,24.774 a 2.323,2.323 0 1 0 0,4.643 2.323,2.323 0 0 0 0,-4.643 m 0,8.516 a 2.324,2.324 0 0 0 0,4.646 2.323,2.323 0 0 0 0,-4.646 m 6.968,-3.871 a 2.324,2.324 0 0 0 0,4.646 2.324,2.324 0 0 0 0,-4.646 m 0,-8.516 a 2.323,2.323 0 1 0 2.322,2.323 2.324,2.324 0 0 0 -2.322,-2.323 m -13.936,0 a 2.323,2.323 0 1 0 0,4.643 2.323,2.323 0 0 0 0,-4.643 m 0,8.516 a 2.324,2.324 0 0 0 0,4.646 2.324,2.324 0 0 0 0,-4.646 m 6.968,-13.161 a 2.323,2.323 0 1 0 0,4.643 2.323,2.323 0 0 0 0,-4.643"
   style="display:inline;fill:#ffffff"
   transform="translate(-1656,-306)"
   id="path5" />
      
    </g>
  </g></g></svg>
