<?xml version="1.0" encoding="UTF-8" standalone="no"?>
<svg
   viewBox="0 0 256 256"
   xml:space="preserve"
   style="fill-rule:evenodd;clip-rule:evenodd;stroke-linejoin:round;stroke-miterlimit:2"
   version="1.1"
   id="svg7"
   sodipodi:docname="Cremator.svg"
   inkscape:version="1.4.3 (0d15f75, 2025-12-25)"
   xmlns:inkscape="http://www.inkscape.org/namespaces/inkscape"
   xmlns:sodipodi="http://sodipodi.sourceforge.net/DTD/sodipodi-0.dtd"
   xmlns="http://www.w3.org/2000/svg"
   xmlns:svg="http://www.w3.org/2000/svg"><defs
   id="defs7" /><sodipodi:namedview
   id="namedview7"
   pagecolor="#ffffff"
   bordercolor="#000000"
   borderopacity="0.25"
   inkscape:showpageshadow="2"
   inkscape:pageopacity="0.0"
   inkscape:pagecheckerboard="0"
   inkscape:deskcolor="#d1d1d1"
   inkscape:zoom="3.1835938"
   inkscape:cx="127.84294"
   inkscape:cy="128"
   inkscape:window-width="1920"
   inkscape:window-height="1017"
   inkscape:window-x="1912"
   inkscape:window-y="-8"
   inkscape:window-maximized="1"
   inkscape:current-layer="svg7" />
  <desc
   id="desc1">Traced by Dogo314</desc>
  <g
   transform="translate(-276 -306)"
   id="g7">
    <path
   style="fill:none"
   d="M276 306h256v256H276z"
   id="path1" />
    <clipPath
   id="a">
      <path
   d="M276 306h256v256H276z"
   id="path2" />
    </clipPath>
    <g
   clip-path="url(#a)"
   id="g6">
      
      <path
   d="M 3444,2769.042 V 2770 h -4 v 4 h -5.07 a 8,8 0 0 1 -6.93,4 h -28 a 8,8 0 0 1 -8,-8 v -4 c 0,-1.457 0.39,-2.823 1.07,-4 H 3380 l -2,-4 h -6 l -4,8 h -28 l -7,-4 h -4.219 a 1,1 0 0 1 -0.97,-0.757 l -3.568,-14.273 a 1,1 0 0 1 0.727,-1.213 l 2.481,-0.62 a 1,1 0 0 1 0.949,0.263 l 0.6,0.6 6.598,-3.299 a 8,8 0 0 1 2.964,-0.821 L 3350,2741 l 6,-4 v -3 h 12 v -4 l 8,-4 h 16 v 8 h 4 v -12 h 4 v 12 h 4 v -4 h 12.131 l 4.619,-8 6.928,4 -4.619,8 H 3428 v 4 h 4 v -8 l 16,-8 h 4 v 12 h -4 v -8 l -11,7 v 5 h 91 v -4 h 24 v 24 h 4 v -4 h 4 v 8 l -8,8 h -4 v -4 l -4,-4 h -16 v -0.36 c -2.716,1.189 -8.983,3.402 -18,3.402 -16,0 -18,-4 -34,-4 V 2762 h -16 v -0.958 c -4.479,0 -5.823,1.791 -7.167,3.583 -1.656,2.208 -3.312,4.417 -8.833,4.417 m 84,-9.697 V 2758 h -52 v 0.958 c 16,0 18,4 34,4 9.862,0 16.256,-2.758 18,-3.613 m -68,-0.387 V 2758 h -31 v 0.062 a 8,8 0 0 1 5.93,3.938 h 5.07 v 4 h 4 v 0.958 c 4.479,0 5.823,-1.791 7.167,-3.583 1.656,-2.208 3.312,-4.417 8.833,-4.417 m 52,-8.958 h 16 v -4 h -16 z m -80,-4 h -4 v 4 h 4 z m 5,4 h 11 v -4 h -11 z m 15,0 h 56 v -4 h -56 z m -96,-0.429 V 2747 l -25,6 v 5 l 9,4 h 24 l 3,-8 h -3 l -4,-4 -17.667,3.365 a 4.1,4.1 0 0 0 -3.333,4.028 V 2758 h -1 v -0.862 a 5,5 0 0 1 4.064,-4.912 z"
   style="display:inline;fill:#53bcda"
   transform="translate(-3036,-2268)"
   id="path4" />
      <path
   d="m 1782,2429 -22,-22 v -22 l 18,-18 v -28 l 25,25 v 27 l 8,-20 10,33 -25,25 v -15 l 7,-7 -11,-11 v -14 l -21,21 11,11 z"
   style="display:inline;fill:#ffffff"
   transform="translate(-1387,-1992)"
   id="path5" />
      
    </g>
  </g>
</svg>
